<svg xmlns="http://www.w3.org/2000/svg" xmlns:xlink="http://www.w3.org/1999/xlink" width="300" height="300" viewBox="-171705.30731200046 3556644.9982938473 978843.0193126415 1161195.2448583157" preserveAspectRatio="xMinYMin meet"><g transform="matrix(1,0,0,-1,0,8274485.241446011)"><g><path fill-rule="evenodd" fill="#66cc99" stroke="#555555" stroke-width="7741.301632388771" opacity="0.6" d="M 199946.5003299719,3766841.062600605 L 200056.40269421804,3767124.3241045396 L 200883.56897253328,3767729.023949167 L 201692.2500101091,3767985.9891764573 L 202498.1610424064,3767986.2376910066 L 203665.21216608293,3767426.289250827 L 204833.70832946955,3767237.475918374 L 207478.12888108334,3767592.246287872 L 208957.268820016,3768646.7219641306 L 209351.1576452515,3769379.1628146986 L 210027.99012014054,3769485.2854145668 L 210444.8791622236,3769485.043916639 L 212344.72500069742,3768736.1934886076 L 214642.50249836035,3768659.8479200914 L 216189.03047776927,3769131.9241932714 L 217211.70539823675,3769843.428017886 L 217297.25480854622,3770153.4375556502 L 217707.0409032586,3770514.7071372545 L 217941.99288721348,3770550.878565886 L 219029.88033896015,3770304.919135467 L 218924.80292202363,3769088.2077952977 L 218562.47577339306,3768700.043858694 L 218297.66621924285,3767831.194795848 L 218420.82841677812,3767446.3379044062 L 218605.35068969213,3766342.0344229676 L 219073.61833752302,3765717.972806101 L 220491.106671481,3764681.780101422 L 221815.39345522964,3764014.4178658505 L 222489.65302146797,3763956.0911330758 L 224305.93110198283,3764391.635146298 L 224805.85734110058,3764280.818697771 L 224666.59181248106,3762790.652703395 L 224907.37990694097,3761348.0641788733 L 225415.54323348554,3760634.7357682404 L 225477.56910884735,3759962.114663213 L 225154.31250858534,3759762.977387181 L 222630.07393186353,3759733.6065918272 L 221063.97720937582,3759203.5471721548 L 218311.85236131318,3757423.012855976 L 218172.72871276777,3757208.186927428 L 218139.2536212685,3757003.7685292833 L 218036.20133247052,3756872.258010777 L 215417.3096379718,3756320.1133663603 L 213489.16297371278,3756263.444308009 L 212840.0335004881,3755886.3241140274 L 212485.26930687792,3755325.099018939 L 211300.7260057074,3754981.630287511 L 207018.16787731356,3757708.9061807357 L 206116.9591776491,3758725.564214658 L 205187.04218298383,3760943.1120947218 L 204964.84458523715,3761234.6510893553 L 204392.5269154717,3761468.4890609994 L 204271.67652251088,3761993.4236701666 L 203466.87429041078,3763736.789602408 L 202130.4359636453,3765631.4733328028 L 199946.5003299719,3766841.062600605 z" /><path fill-rule="evenodd" fill="#66cc99" stroke="#555555" stroke-width="7741.301632388771" opacity="0.6" d="M 242502.9705760731,3772017.269309906 L 244256.9060875072,3771724.3485200973 L 244687.0072502384,3771748.1137510086 L 244913.30148729729,3771940.144083315 L 245666.01655674205,3771871.092840256 L 247125.71645504268,3771008.528301954 L 248325.17500256642,3770822.0616805167 L 249591.36977522259,3770272.9967788607 L 250308.90676376564,3769634.1526995073 L 251930.2313917169,3767607.1679544393 L 256415.41427729762,3766754.9138354613 L 258124.2731577701,3767076.2019760064 L 258795.20015561863,3767590.494289724 L 259557.54629428298,3768714.8528220044 L 259151.37775213443,3769134.1028090445 L 259116.60900678087,3769368.632154521 L 260628.53065123464,3770692.6240828447 L 262460.77573141264,3770700.168269551 L 263089.60462043685,3771055.295201752 L 266480.8197061834,3769605.967143041 L 267289.59665024007,3768820.9706129557 L 267179.7383764548,3768600.040332418 L 266176.8570482521,3767814.827952395 L 265580.0010664849,3767722.958565731 L 265239.3263046295,3767408.8857482793 L 264669.67529060494,3766172.9926500698 L 264769.25550689944,3765687.7157781287 L 264064.50264739053,3764856.3229825194 L 263504.5809199381,3764616.1424698695 L 262104.2109899812,3764704.4247032795 L 260741.0121362519,3764039.8958954024 L 260120.9961070152,3763933.3943028627 L 258065.41316669565,3763832.2322117863 L 257882.38465681404,3764032.486177799 L 255421.82832126314,3763962.137580899 L 254019.75387724745,3763787.92397315 L 251458.78593849507,3762338.141778749 L 249893.3754340014,3762041.1495664488 L 249382.26123582295,3761637.741768557 L 249154.9314798936,3761201.6392428777 L 248547.75296379757,3761011.720548517 L 246549.19549854237,3761541.649829225 L 245858.22885981997,3761547.0710268524 L 245132.68580405344,3761061.8260910837 L 241650.24227056804,3761568.808180695 L 237346.38833345182,3762509.939267045 L 234548.53154152533,3763702.0446192413 L 234223.46677188744,3764308.668501525 L 233718.23293929733,3765993.153856835 L 233571.15716320858,3766886.7831234485 L 233798.57703311072,3767197.8903874797 L 234354.25308932608,3768498.1603990328 L 234435.17047451326,3769446.2064827844 L 232954.19493590202,3770980.306120233 L 230834.4004790623,3772464.0540896356 L 230211.85640396725,3773704.210688828 L 230623.02658055746,3774571.6550685144 L 231205.10929647554,3774580.355022734 L 233196.08831484697,3774007.3312520506 L 236313.817134675,3773746.6681987494 L 239180.7671054277,3772389.828120297 L 239817.60938358388,3771617.683391725 L 240822.95011681,3771493.43833628 L 242502.9705760731,3772017.269309906 z" /><path fill-rule="evenodd" fill="#66cc99" stroke="#555555" stroke-width="7741.301632388771" opacity="0.6" d="M 180324.88068076398,3772293.834396792 L 182366.25183917442,3771590.7553606643 L 184406.67228666262,3773207.9133105297 L 184738.7838502801,3773515.26698536 L 185097.9454836686,3773271.0099214814 L 185800.17966566735,3772978.0160122425 L 186484.96993900242,3772926.9124518847 L 186979.43713086745,3773111.2058811965 L 188560.32034075225,3774243.361822541 L 189077.50938945642,3774795.206083156 L 189111.2172434579,3775175.515138824 L 188977.7455498599,3775590.1063853535 L 189158.68160238414,3775757.1882413235 L 189702.6723496482,3775360.6231936887 L 190323.52721585438,3773807.4394186838 L 189820.8340862813,3773442.318503214 L 189955.7983426834,3772817.55371055 L 191019.52389529982,3772376.2586883786 L 192486.4833994159,3772608.341474505 L 193580.99293961318,3771782.169373972 L 194102.5230614749,3771165.1684240894 L 195076.86711547256,3769689.5986678894 L 194844.6017557666,3769430.213870389 L 193680.58598923712,3769208.663862959 L 190853.21382435126,3769442.6025556885 L 190141.78371361952,3769221.5600486402 L 189890.14383867697,3768909.381371664 L 188313.51945309353,3769377.337300058 L 185201.1719903369,3770971.511883157 L 184660.30823358515,3770994.781512188 L 184297.42653992504,3770640.799066715 L 183509.5437701221,3770275.7357143024 L 181050.4696297163,3770653.498508809 L 180555.25696411496,3771054.1365919937 L 180055.25118112902,3771838.757555729 L 180324.88068076398,3772293.834396792 z" /><path fill-rule="evenodd" fill="#66cc99" stroke="#555555" stroke-width="7741.301632388771" opacity="0.6" d="M 263088.0048684769,3685252.0354846125 L 264115.3416559588,3685715.2184285903 L 264563.00675000413,3685726.666283407 L 266682.6588809263,3684332.7805714584 L 268733.0974316412,3683301.0373050943 L 270310.48313550546,3682738.328816271 L 270974.1493518227,3682214.670541872 L 273599.38013302436,3679213.3235332863 L 272204.9966892742,3678249.707029981 L 270288.2888985014,3677877.7053457783 L 269234.7266914202,3677912.3697224082 L 266949.6994555476,3678527.052210329 L 265933.17680625163,3678824.1943155527 L 265397.3083420936,3679248.79242872 L 262772.002482643,3680052.482091906 L 261030.07498260605,3681652.521726758 L 260974.69099075088,3681941.199351644 L 260947.04471740217,3682231.5265363986 L 260529.67721984093,3682806.6631365116 L 259813.5453478623,3685143.6430774163 L 261367.50831732352,3684273.1501245555 L 262007.2847792819,3684512.71007324 L 262734.0087989905,3685260.561098888 L 263088.0048684769,3685252.0354846125 z" /><path fill-rule="evenodd" fill="#66cc99" stroke="#555555" stroke-width="7741.301632388771" opacity="0.6" d="M 276230.0655520114,3765287.350584898 L 275809.0354631058,3765527.824809452 L 274881.3077650211,3765944.3977146456 L 274575.33381642646,3766220.9242877155 L 274569.5354701712,3766404.067419786 L 275250.0975679881,3766598.7207752094 L 276405.41827028187,3766464.4479609425 L 277316.1866376671,3765665.332739896 L 278702.41279379977,3765401.179119489 L 279281.86801559146,3765407.721681979 L 281470.01579854987,3766542.7563976417 L 282310.9511894735,3766427.2486458584 L 280548.37951104064,3765872.298220177 L 279127.71856651723,3765012.4768626583 L 277011.7103519322,3765338.357227512 L 276230.0655520114,3765287.350584898 z" /><path fill-rule="evenodd" fill="#66cc99" stroke="#555555" stroke-width="7741.301632388771" opacity="0.6" d="M 357410.04339707235,3640731.267633324 L 356371.22065015323,3641943.152501911 L 355002.648543634,3646274.4012105307 L 354111.7923141455,3647699.9897567136 L 352949.45465699455,3648969.587889588 L 351761.88249895675,3653323.480549039 L 350922.8127307913,3654120.932762751 L 349938.7743047875,3654061.9484759727 L 350062.14743627224,3655868.8001516107 L 351144.6477104187,3656401.516212954 L 352903.9372234415,3656154.2872100007 L 353470.0695599577,3655612.3764764285 L 353889.7247966549,3655136.227956541 L 353871.70645430253,3654440.3645313825 L 354351.7122567977,3653064.042092364 L 356095.11886406934,3650226.1399430037 L 357092.0766952359,3649101.275664431 L 360063.33976518194,3644947.152428764 L 361124.6237755943,3643789.6799212587 L 361704.01204395806,3643428.6613088762 L 363409.46307159984,3642201.3367145797 L 364683.52410444705,3640621.718187045 L 371785.19358892326,3634300.3024725416 L 373303.06706046424,3632361.149341996 L 373012.14337633085,3631849.138991953 L 372642.4227337488,3632143.3091924204 L 370829.4037658095,3632679.565387433 L 370137.1606395154,3632775.3447743305 L 369462.124302236,3632634.639606959 L 368829.2890100172,3632239.370529869 L 366518.7096889395,3630080.95045212 L 366170.5070376562,3630621.699138629 L 366271.73155462183,3630780.3471904844 L 364743.11901670415,3632322.6681838697 L 361859.3499078102,3634709.1427169074 L 360756.1734586243,3635039.1184435133 L 359981.9010778107,3635824.327758253 L 359016.3173956317,3637715.6387363984 L 358909.1556854968,3638029.6750960434 L 359001.3780291249,3638576.518374804 L 357396.04700157617,3640474.9637808762 L 357410.04339707235,3640731.267633324 z" /><path fill-rule="evenodd" fill="#66cc99" stroke="#555555" stroke-width="7741.301632388771" opacity="0.6" d="M 360565.2320577569,3702136.892860289 L 360612.9639420071,3701946.2215793044 L 361920.8745092504,3701742.6685493714 L 362660.88570829766,3701973.781642972 L 365589.8840930333,3699771.629092973 L 367654.7236236576,3699560.2615353772 L 371491.17326414597,3697581.615615985 L 372579.60994686355,3697500.9000410386 L 372764.4694564497,3697257.2613913496 L 373035.4542018727,3695175.9019540376 L 376759.18436066277,3690737.175123745 L 377530.52087334276,3690078.2191595337 L 378066.8563269319,3689280.445595282 L 378700.4528189128,3687550.1966560213 L 378508.8654590572,3686450.1896371637 L 377406.4933503449,3685445.3634664007 L 376616.18267919996,3685226.703758802 L 374948.53803904983,3685931.036159686 L 373372.6542705959,3687071.070299213 L 372035.6884521309,3687613.7012154767 L 369414.3667276448,3687741.3237403086 L 365956.7913845914,3687537.4874994177 L 364447.88104353903,3687911.3302023434 L 363611.2038661104,3688392.8331489633 L 362102.13774755754,3690417.8489484396 L 361481.33003355976,3691815.8787311874 L 362075.55078567646,3693278.544399885 L 362486.924579524,3695092.185651506 L 361924.6296368396,3697962.746043295 L 361583.38104678225,3698821.037842561 L 360176.91441952804,3699330.1460880334 L 359061.7626580334,3699144.82063083 L 359033.2375961938,3699440.0262543573 L 358395.0203231615,3700076.8652157253 L 357085.81418947777,3700525.9019397018 L 355100.3526351963,3700423.5957596228 L 354662.4871841692,3700536.8651544508 L 353974.9408759504,3701098.450559937 L 353527.5180632728,3702093.431589761 L 351880.22840234765,3704218.8791221874 L 351214.15028931916,3704523.5945944516 L 350961.21132474556,3705269.1667570216 L 351024.74453118595,3705440.986791938 L 351451.1758365428,3705416.776843996 L 352637.9819023264,3704941.6231853706 L 356486.2125581647,3704916.8975635893 L 357761.3127196012,3704227.2455207375 L 360565.2320577569,3702136.892860289 z" /><path fill-rule="evenodd" fill="#66cc99" stroke="#555555" stroke-width="7741.301632388771" opacity="0.6" d="M 23126.26232407696,4203334.6931945095 L 21741.281020528346,4203383.888327037 L 20977.111678249552,4203764.454982446 L 20748.059107976384,4204401.771352259 L 21478.14076227584,4205175.0246501835 L 22173.07206832996,4205566.3130991375 L 22996.48140708072,4205264.970087427 L 23004.96142289642,4205261.912699553 L 23204.838216431264,4204338.395428685 L 23146.36817980511,4203333.9686740795 L 23126.26232407696,4203334.6931945095 z" /><path fill-rule="evenodd" fill="#66cc99" stroke="#555555" stroke-width="7741.301632388771" opacity="0.6" d="M -30393.699707160937,4189627.6561296317 L -30362.509337722557,4190085.6169140567 L -30195.93095640058,4190328.2422859506 L -29519.305575766484,4190230.354031516 L -29163.586531315697,4189836.542415403 L -28934.5698228142,4189260.9071226665 L -29297.512898940826,4188424.556022613 L -29732.9170396782,4188362.075365228 L -30237.685792021686,4188675.134545857 L -30457.56820095412,4189168.7885130066 L -30393.699707160937,4189627.6561296317 z" /><path fill-rule="evenodd" fill="#66cc99" stroke="#555555" stroke-width="7741.301632388771" opacity="0.6" d="M 26498.323789430084,4200218.011225 L 26579.60231865052,4200675.017107779 L 27288.436300158268,4200800.053469521 L 27826.04480931186,4199856.843534697 L 28157.627433643385,4198759.829715568 L 27772.735036204744,4198035.2313784715 L 26936.416941781354,4198498.399943719 L 26947.924312151445,4199078.224286914 L 26498.323789430084,4200218.011225 z" /><path fill-rule="evenodd" fill="#66cc99" stroke="#555555" stroke-width="7741.301632388771" opacity="0.6" d="M -90211.88250495284,4614511.994956693 L -90206.34326648468,4615128.950366808 L -90742.59952628252,4618696.857728979 L -91116.24447333906,4619787.164162228 L -90828.61931309989,4623850.601534818 L -91644.51607239223,4624572.813583343 L -92229.22811475524,4626363.853168453 L -92166.86343789857,4627402.767230054 L -91769.83920766134,4628122.567053089 L -91909.67446084728,4630063.843196277 L -92900.23153627454,4631742.323157429 L -92924.3298777591,4633096.003554112 L -93167.38766559225,4634403.4171110215 L -94288.26705897588,4636393.416874986 L -94472.37442471669,4638013.822385775 L -94323.74821049359,4638810.310473985 L -94467.47141746327,4642224.159492277 L -94714.55970620166,4643215.00549889 L -95182.84401709388,4644467.726930621 L -95949.07268397463,4645799.043105542 L -96951.43356882059,4646513.01330253 L -97674.68431576865,4645856.945497251 L -98177.71059686039,4645533.027907269 L -98496.87134208484,4645638.065707354 L -99140.88238138857,4646840.068825887 L -101903.08378897666,4649732.817566955 L -102105.10116925533,4649888.024765347 L -102644.23812200688,4649869.33378562 L -103141.74863520998,4651204.772299639 L -102142.18420147605,4652159.330533509 L -100700.99104311992,4654989.844448675 L -99518.92692065332,4657995.677317251 L -98200.52607488853,4662557.825822909 L -97287.16839866235,4668386.549629099 L -97016.4434799396,4673117.414336079 L -97427.0715021654,4674833.011861114 L -88266.82874784397,4673895.149862441 L -88209.4490552512,4673877.612015191 L -87182.10663947475,4673797.546340372 L -87085.66373758903,4673787.0616851095 L -65117.97051231633,4671838.108357584 L -48759.22796710173,4671035.687631238 L -39929.77440911729,4670422.025873495 L -38596.58046472515,4670330.393473347 L -38340.0427920277,4670304.910854862 L -38334.141307977145,4670310.160171174 L -25810.146479665535,4669208.390381584 L -16092.580214318761,4669020.868530302 L -16092.414487479255,4669020.856422033 L -9773.33655795554,4669030.047722354 L -727.1246990300715,4667826.203742999 L 2926.8379492877866,4667562.73334808 L 33300.78176457947,4665699.003862895 L 44395.93989094597,4665376.976106828 L 54588.54107150732,4664845.390963611 L 61921.301459078444,4664191.618213868 L 61921.798525322345,4664191.587415416 L 72541.4002761441,4663527.451898145 L 72615.13037077233,4663522.995280424 L 72925.91606634704,4663476.013597876 L 73030.43445363961,4663474.718619282 L 85789.84720989072,4662335.588859172 L 110036.78549464676,4660600.716890505 L 110297.78174418118,4660580.879219771 L 111612.76142496278,4660488.306202438 L 112755.53004887182,4660399.720065441 L 120573.00504188047,4659788.792289728 L 125590.74058922858,4659445.27790777 L 131609.8356359701,4659038.79639562 L 132266.30294745287,4658994.750991791 L 132649.80140459607,4658968.379683441 L 137527.5399784032,4658717.380010336 L 138838.53612036572,4658611.846287172 L 140471.01158115506,4658477.530409157 L 140868.95032933768,4658490.514070033 L 140981.4827218193,4658500.060967876 L 155895.26128825243,4657725.766812481 L 165750.49242456025,4656916.550130902 L 178653.2637985836,4656370.3282161495 L 194023.78899963706,4655677.99496415 L 194166.45121778076,4655671.94540522 L 224502.06143983692,4654365.604537714 L 227780.724517152,4654231.767367782 L 251582.7387627018,4653522.169653562 L 248394.02711372287,4563519.603934376 L 247249.4371200415,4529001.501234817 L 247238.56066737595,4528374.155959242 L 247232.72618477436,4528201.502939983 L 246124.94690216758,4487556.520040665 L 245434.7627249676,4467788.165384346 L 245432.551770132,4467722.8848405825 L 245213.35933836558,4461315.056782903 L 245209.25203473726,4461196.156689659 L 244618.65492271693,4446089.322975114 L 244479.06227915522,4442229.308279703 L 244430.396956002,4440636.473940205 L 244400.1384792338,4440032.648036008 L 243030.38729779178,4407733.89910136 L 243036.31666846175,4407642.2330602985 L 242752.1883905627,4401257.310063178 L 242752.17351163938,4401256.866010949 L 241569.04004770084,4370478.301063708 L 241568.70237065983,4370470.755304644 L 240903.8589655329,4356205.1679954305 L 240903.21015649432,4356190.853765815 L 240885.95186339002,4355913.379826906 L 240884.008280402,4355857.545945927 L 240543.2006230496,4346458.316946835 L 240530.20985364943,4346074.909929287 L 240417.953226695,4339454.183408904 L 240318.6633612464,4333577.531067141 L 240234.10857235,4328557.6659210855 L 240110.4184492171,4321014.72641749 L 248251.51851232327,4313389.067159533 L 275014.5669317527,4288299.8985139085 L 275066.65197449713,4288255.216635407 L 275204.75563909917,4288125.462594228 L 282948.66537116084,4280873.104772193 L 282962.32176677836,4280859.627010009 L 286652.2252404181,4277453.667910706 L 286651.2704261772,4277453.80448159 L 297044.5973623536,4267708.059599244 L 311694.4110924904,4254036.092960286 L 314335.56333046034,4251579.332195489 L 346908.16979422525,4221116.819276188 L 374393.59727006074,4195195.095790294 L 408232.35321571876,4163638.4304553536 L 408227.8176538464,4163635.3737333477 L 426360.19522846385,4146776.005715693 L 455559.8340126985,4119426.929258003 L 485207.6881317626,4091652.907152324 L 499920.20786882815,4077976.7882503904 L 545855.7035189187,4034992.6767979185 L 581203.8361333101,4001889.052257116 L 581531.6382565108,4001610.2293124213 L 597964.3511324605,3986198.5192589327 L 599775.508710196,3984511.39575399 L 604050.0450558792,3980526.1025472875 L 618368.5507344084,3967217.366984093 L 622145.7187292397,3963677.1304372847 L 622177.3956190266,3963647.502605619 L 622221.4112868155,3963607.8386830883 L 644350.8560246227,3942817.9345951267 L 644492.3301225243,3942708.390109735 L 645462.0119744486,3941807.6043933537 L 645688.6927229068,3941581.3059500027 L 645934.2758802407,3941352.3266245667 L 653773.2719057014,3934054.1187675674 L 656760.5498889228,3931271.4325610287 L 661012.0174812354,3927268.912085274 L 666986.8128512412,3921653.3823154187 L 667035.4042706576,3921633.8700645934 L 668262.9188986728,3920495.3699055063 L 668352.4533394978,3920443.787293565 L 688769.716766276,3901304.1863972815 L 688778.7613147823,3901302.710824455 L 699968.8471013786,3890805.516552832 L 700041.4671322394,3890741.085524114 L 716007.1865012923,3875834.467950074 L 716382.9977868873,3874711.495508964 L 716414.088159472,3874075.254592943 L 716451.4776420278,3865320.6589586483 L 715964.6319405804,3863294.0284885503 L 716143.163332228,3861732.8576918794 L 716350.6169892177,3861179.2628336377 L 723977.3636704254,3849919.1377740297 L 732156.9325979019,3841840.293555895 L 733462.3835961242,3837570.236250903 L 744404.2826000198,3815423.306823459 L 751474.9283560796,3810049.4550447413 L 757558.970623918,3805779.8601785977 L 759672.835424157,3804498.789135144 L 763370.9725636907,3799486.9291675165 L 764130.4807095923,3794751.810018213 L 763973.0095260993,3794533.6518632136 L 761119.1101703155,3793699.2640492423 L 755615.4566041611,3788008.701280218 L 753992.4644215456,3785505.8685806985 L 747789.299170863,3781435.959951015 L 746975.3637981369,3780708.577198522 L 742889.6018863465,3778435.7438138546 L 740695.4875223135,3777436.930018079 L 739695.8071995147,3777585.472926239 L 738747.3896120278,3777381.459993733 L 737952.2044917576,3776632.667567008 L 736805.6253483478,3774933.020408773 L 736640.7136836901,3773964.8102482785 L 736801.7398230585,3769313.5704428633 L 736537.5872587229,3767622.6793192606 L 734277.0565868057,3764327.9745290056 L 731011.4861370518,3760735.9174278015 L 729415.7773902055,3755783.8721954497 L 728969.5977581672,3747016.348439414 L 729257.5813647292,3743417.13622305 L 731152.812868122,3737942.912811539 L 732223.1249703397,3732590.928668677 L 732040.3193909763,3731363.391860761 L 729965.3497477202,3730377.9711842337 L 729522.9427667145,3730079.4766818886 L 728948.155725396,3729329.495453744 L 728227.7062804229,3719565.10254259 L 728285.586805678,3718368.3010066133 L 728718.2672558211,3717106.725910476 L 728747.1796239126,3717066.7977073034 L 726686.6206816508,3712915.49665613 L 723471.1682415857,3708761.1500164615 L 720931.4195130183,3704430.6977007636 L 720598.5971430509,3701870.1488410486 L 717096.1725720835,3699771.7893537018 L 711936.8659406521,3697610.642107802 L 714039.3482003836,3691458.1211086316 L 716851.4450599157,3682361.514732042 L 716726.6679319342,3674257.855153536 L 716417.620164197,3671369.5049153953 L 715740.4107148529,3669432.4699775414 L 714857.0929802174,3668193.9696222665 L 714047.8366790187,3665305.4565264555 L 713928.8949863208,3663723.690477541 L 717089.8993191163,3658959.059312335 L 721922.2394756931,3656979.9270203407 L 723572.9098010076,3656682.640432254 L 725113.4159046276,3656776.1125864726 L 725576.6339767948,3657009.0019389098 L 726163.5444099127,3657815.211279769 L 726780.0419996693,3657968.0345263085 L 731285.6395763552,3657444.8465377474 L 731919.091876892,3657005.9529525186 L 732448.3410509324,3656639.4180244184 L 736579.5921715945,3650989.2956216186 L 737289.8079166291,3643698.9296522657 L 737095.8350647481,3640767.2826652895 L 737096.4452951816,3640741.8859199444 L 734385.3719745805,3634367.1613520705 L 734335.0695671167,3634342.9998773467 L 723432.6222336701,3623806.2547670295 L 723448.9440455595,3623697.7786298213 L 719435.7068416602,3624202.146499374 L 719381.2685539584,3624204.3822560394 L 717664.8338252611,3624431.5259341337 L 717519.4409130113,3624472.272532228 L 713719.2806409233,3622409.2424458982 L 643921.2385095446,3615423.2310116575 L 605445.5984708747,3611539.968072201 L 583857.9916157004,3609328.652573244 L 557233.8435163749,3606667.2397089927 L 488838.202072051,3599707.565661886 L 488274.9989018233,3599652.229584896 L 487482.4808621774,3604250.132489458 L 487522.9940246555,3606625.5520694945 L 487178.790635909,3609031.5084119015 L 486917.314236223,3609951.934063724 L 485009.1632404871,3613679.1007593027 L 484167.1145155422,3614933.061938623 L 483090.69999144605,3616010.125413697 L 481910.5849480202,3616688.306855102 L 481554.5849738365,3616810.9014921756 L 480026.24201470293,3616691.9127658 L 479012.70983686484,3616172.979733047 L 477850.0576111128,3614878.715268971 L 476927.8729951161,3614658.989164141 L 476082.8133998114,3618064.1403137604 L 475864.76732424414,3620946.815776501 L 476076.0989759239,3623096.8098538835 L 476340.3955629416,3623927.6016225065 L 476124.65228183026,3627697.149460417 L 475557.8799151876,3629494.42477387 L 473700.31179782585,3631616.4634702904 L 473593.20232935785,3633534.599777059 L 473687.8199589538,3633922.352691042 L 474373.3780168838,3634851.764551355 L 475205.4779698698,3634572.4954228983 L 475608.8631728282,3634981.6685592337 L 476031.76213168167,3635734.472686316 L 476456.737552651,3637385.1361919516 L 476201.6995899837,3640245.9146214295 L 475649.0885873847,3643694.890484462 L 475457.2042989486,3644615.172946493 L 473775.24606729735,3652690.2992374417 L 472605.26276662573,3655165.6036687274 L 471086.78370896995,3659593.159371342 L 470579.08766613365,3661697.0816278635 L 469368.2323003913,3664842.4539587973 L 466480.7666834475,3669551.3716667714 L 466194.4461839179,3670018.657981551 L 463513.33243449737,3673833.7838285128 L 462544.3548953677,3675038.807350873 L 458501.86649749253,3681143.925272405 L 456260.9409308034,3684246.985076348 L 452942.8508732734,3688436.301275078 L 449048.48162798607,3691940.436438808 L 446821.2645340079,3693448.844854041 L 444579.0239554335,3694308.5945590194 L 443473.3470647394,3696497.861765628 L 441278.68363715394,3699195.3095315653 L 439993.53600354167,3700334.12543692 L 439992.60993621964,3700334.6855624975 L 436383.7376018232,3702707.676974531 L 435945.6696811833,3702514.1001324225 L 435692.1524386959,3702124.613212631 L 435745.99605124164,3701836.0872782087 L 433523.737914807,3702574.9309454462 L 432506.5060809424,3705117.865780329 L 429290.74314137344,3708788.700989712 L 427129.31756031374,3711598.86873771 L 425610.78000713675,3712142.599772738 L 424418.288269536,3712806.08893255 L 422014.3935034312,3715186.9486820274 L 418644.3492313092,3717299.3728829427 L 416517.1899272719,3718127.076534141 L 413989.9667025458,3718803.4869144997 L 412752.0845605516,3720422.5011511357 L 411229.0670438303,3721483.7923347885 L 407222.959973906,3724277.6071478487 L 404548.95763526234,3726754.418897913 L 401325.2965362561,3730623.9426678508 L 399123.22114389145,3732731.592583729 L 397997.93955670646,3733220.3783525745 L 396563.5026048183,3734281.7531432332 L 395093.63993385265,3735369.916464933 L 392860.856876918,3736182.06982751 L 391142.4130748215,3736567.4702822687 L 390648.01481178065,3736512.682105543 L 389994.08003969904,3734983.821309932 L 390348.005205806,3733526.999021941 L 390540.3284376704,3731445.369106589 L 388120.4601360017,3731422.140976918 L 383357.3800211819,3730019.1723860484 L 381645.5239719194,3730411.712916213 L 379803.4200104457,3730570.8688264815 L 377946.9942449398,3731093.3256469616 L 374500.36141793965,3733300.45267652 L 373969.5927566982,3733806.508344607 L 371706.62248491973,3734346.7920666346 L 370623.7721371332,3733751.410475603 L 369279.9222856451,3734442.6847042595 L 367737.22485614545,3738093.9454063424 L 368211.41767358547,3738897.014702064 L 369942.6752046315,3740891.7719784356 L 370932.9477612439,3741330.148577527 L 370939.3741059832,3741332.9451443274 L 371215.20569013164,3742560.285975099 L 371197.9257098847,3745388.6671787063 L 369357.22883368365,3750182.635707856 L 366698.1232601183,3756474.875083133 L 365061.40198857617,3759692.220042 L 363060.85674438963,3762693.5644776197 L 362926.76960219373,3762894.9317353214 L 361237.70221336803,3764893.754724847 L 359715.2294178681,3766247.2320655743 L 357554.5275144813,3767499.5506174667 L 355148.48255832004,3767883.5410877313 L 351974.12144123815,3767645.245176922 L 351408.2435520269,3767363.068747551 L 345992.8049204432,3767723.0103386883 L 345337.35772205086,3767577.5351680936 L 344966.29088656756,3767115.064352694 L 342480.2448774015,3766726.672318978 L 340069.67787135165,3767139.886718084 L 338908.7308290873,3767088.614383918 L 335335.3923824911,3765978.76876867 L 334993.4625326261,3765763.0886343424 L 333293.6405106069,3763762.16629012 L 331797.9600110559,3765199.7297308156 L 330088.72874770535,3766735.4694099566 L 328784.2563481739,3767500.9606064265 L 324962.2906418005,3768124.8116516313 L 322032.0247573013,3768916.2226023097 L 321100.62196292926,3768660.4602142116 L 320476.41266366094,3768889.421018999 L 319574.44769224105,3769220.249236312 L 317473.4946813368,3770553.697235272 L 315711.84061778197,3771267.0371547765 L 315005.0985236383,3771312.8200401925 L 312010.43561828183,3773244.8415205176 L 309031.0974485433,3774121.2079317374 L 307334.7248412869,3775025.603236543 L 306443.9384874098,3775157.474446288 L 305365.7135244014,3774650.648353383 L 303497.6123748404,3775303.66756643 L 300832.30195196066,3777528.9859255184 L 298195.34623792267,3779732.460136067 L 296871.2926055867,3780371.247241385 L 296125.2068482713,3780431.7726297653 L 295648.5729818952,3780575.271457255 L 294644.1995736703,3782330.749571176 L 293811.8794171937,3783910.923813295 L 292069.4650942659,3788110.6164385364 L 291303.4552217178,3790491.819824357 L 290960.24900946603,3792529.5471451557 L 290212.1794945005,3794099.7476167427 L 289099.431206874,3795012.5192000447 L 288064.0867726778,3794798.309983956 L 287067.53525156615,3795145.8547877464 L 284855.06316655024,3796848.541622627 L 283812.2521164734,3798404.8403140926 L 281902.8228562658,3800125.297374046 L 281407.88856786967,3800317.9800311546 L 280250.6879206604,3799932.274541005 L 280050.3052397958,3800025.7729161624 L 276707.9389887259,3803969.276372242 L 276410.78734380286,3804229.546358842 L 275968.64551236003,3804300.3039300865 L 273704.2818757337,3806377.682217878 L 272637.7712158614,3806577.2093320983 L 272128.18393391673,3806763.7897392237 L 269174.28094149986,3807846.249498663 L 266781.082021502,3808926.9683719985 L 264762.1555735207,3810964.5552270613 L 259506.74949843602,3811942.4211758734 L 257468.90409663727,3811407.0849625277 L 256572.9094578056,3811619.1761181774 L 254436.15179189705,3811530.984158273 L 252926.97882824074,3811171.394766153 L 253236.50024038533,3810696.9545876565 L 252570.12967627062,3810143.720205134 L 250954.79775747363,3809325.6677220897 L 249089.41090025354,3809431.2219028105 L 247629.87683301826,3810247.8451990304 L 243955.02135229277,3811802.352319641 L 243141.69822090343,3812002.3857615297 L 239366.81694296765,3811907.3596226005 L 237687.57992420002,3811088.5400181278 L 235832.7895382585,3811229.681872688 L 231200.5553144315,3814153.117187952 L 228336.5095046303,3814386.9874466113 L 226940.57991527062,3815466.3772057816 L 223672.39530899504,3817318.015303079 L 220856.55084860086,3817733.8557949616 L 219761.31766393204,3817568.8308050465 L 216272.8568781535,3817514.4469540906 L 215486.06556989852,3817716.291996052 L 213565.7723735273,3818676.802193927 L 211486.98849530908,3819127.379452208 L 207586.06786455214,3818912.5335702565 L 203728.18796023785,3819058.660895666 L 202570.3735480883,3818819.223977518 L 200751.5472667702,3818805.7779249875 L 198436.24536516768,3818980.9468191136 L 197337.1414794529,3819268.7131496076 L 196955.507459304,3819182.0813105023 L 196702.10438436666,3818895.568583548 L 193037.54283358168,3818095.343619386 L 183763.69930432708,3817597.958209459 L 182878.36224695912,3817137.336528563 L 181047.28942113876,3817283.525139963 L 180670.25144946744,3820327.599096102 L 180347.20153050928,3820997.268765945 L 179449.0237009214,3822029.857541131 L 177655.818677457,3825744.5946295643 L 176461.59213327762,3826712.5413666097 L 171372.58213947836,3829743.4889283483 L 168886.93616864452,3829798.4009785014 L 168539.55743513542,3829467.282720198 L 167570.9290533116,3829552.3469334333 L 166221.4992432983,3830956.810546227 L 165552.62373627943,3832627.11504676 L 166150.6343313284,3835202.3434788147 L 167657.84467041132,3838490.59798261 L 170010.6852453716,3844806.784823267 L 170199.86705625243,3846193.8915118743 L 170108.08751673799,3846761.7348063434 L 168984.11647392088,3849134.1238628025 L 167962.98958654766,3849989.06949621 L 167018.27800255426,3852003.656582793 L 168491.14682706376,3856106.643397228 L 169194.22012051294,3858637.7903968785 L 169885.49057836697,3861551.063894625 L 169913.55446788244,3863264.439674225 L 169393.63679012714,3864234.2420468247 L 167349.00676672935,3865827.780119583 L 167136.63581907575,3867361.3962867274 L 166697.1437736256,3868153.9178532404 L 165274.6681812319,3868211.4659578465 L 164560.1392361904,3868563.4789391938 L 166849.88174452516,3876289.059062758 L 167779.86717466358,3879429.8311464367 L 168487.89933453855,3882751.193353466 L 168934.9967408497,3885894.064214514 L 169034.89167357492,3887762.4796729665 L 169005.0003212961,3890383.7036794843 L 168653.18056211114,3892826.1316654184 L 167940.30183566193,3894609.202623474 L 167351.5531968004,3895536.696177128 L 166340.67505316163,3896194.9742658613 L 165832.21391272743,3896066.2619380546 L 165191.1312557041,3896204.519877006 L 164137.9924638201,3897093.3375048437 L 163093.86684303853,3898297.2459769887 L 162619.51007063553,3898538.7433207617 L 161721.50175832852,3898882.5634484347 L 159905.2145254106,3899225.622034793 L 158568.48998709564,3899200.7447973154 L 158013.07069360907,3898877.8655873616 L 157804.2111914805,3898275.2782931807 L 157838.21530271,3897301.639827639 L 157433.507888511,3897233.7061783485 L 155785.6413616112,3898317.286018642 L 155177.71549723687,3899315.0451937215 L 153460.89801758353,3900192.8012197297 L 149770.98092394986,3902497.5269354666 L 148926.0365524707,3902759.070675927 L 147460.76571527385,3904950.4116423307 L 145395.1648585488,3907497.80043134 L 145414.00911038258,3908176.5718623716 L 146202.62243981374,3910794.377803812 L 147164.23830482614,3912575.7530741445 L 148432.8027693894,3916190.938984143 L 148928.60712992074,3918352.667041772 L 149039.35169162462,3919903.0784455743 L 148818.95245303126,3923500.053305811 L 148580.79667255003,3924646.631411203 L 147285.5217405336,3927689.902389716 L 146238.70463311038,3929070.3408656996 L 145262.80558421917,3929867.7458972293 L 141745.8604334261,3929746.089370257 L 141370.56452950946,3929906.1891100933 L 140930.93931424158,3930560.03545851 L 139727.12170725624,3931325.908907556 L 139114.73655568802,3931220.6212908323 L 136648.88236779923,3931507.3933340814 L 134735.54543515376,3934241.1503721355 L 132347.42262143543,3936888.706124562 L 131737.06299769995,3937151.8945890237 L 128135.16444759764,3941653.484657149 L 126124.91845499206,3946657.2598120538 L 125476.8434996946,3947507.0198099287 L 124595.99793340528,3948165.83384237 L 122635.58690059453,3951512.858909277 L 120661.87805120222,3952457.4762162506 L 120071.10993746709,3952215.368910904 L 115096.50594597799,3954198.4926155796 L 113216.55362248898,3955400.1189430165 L 112106.4239119839,3956271.3520469004 L 111744.14946539002,3957990.9865718917 L 111175.27917387482,3958838.5003650617 L 110465.12639227678,3959422.442293404 L 109611.5054727295,3960740.850475718 L 109698.87106658926,3965098.1680133883 L 108955.07333314989,3967002.6271818127 L 108341.38333322149,3968560.1802556617 L 107142.3665305645,3969956.7197039193 L 106248.65808164561,3970998.0386752426 L 103512.83294127975,3973266.852830541 L 101921.67909083853,3975690.1020025443 L 101403.80863065878,3976903.0053691682 L 100179.89627075696,3977490.948039873 L 99073.16658636153,3978302.918839597 L 97118.47985036316,3980468.880256095 L 97269.48709247162,3981717.7705241037 L 97106.66478099494,3982560.716587255 L 96374.11401144991,3984315.805658105 L 95389.06908023625,3989974.7787556387 L 94016.67440293194,3993370.44145673 L 93284.2776175784,3994105.2062088237 L 91494.53240149375,3995052.929881317 L 89552.81624333386,3995747.8213680102 L 88128.18256809458,3996008.384196852 L 87697.02101206622,3996431.1264382587 L 86404.8737639995,3999296.891956055 L 86532.04278071178,3999670.5486581456 L 86260.42813989654,4000939.3343098373 L 85036.0322001414,4001776.594150338 L 84052.94185145764,4003570.586672036 L 83815.29308380967,4004909.2371560954 L 83206.43640527898,4006580.429334599 L 78931.34477232385,4012502.0049223355 L 75756.03801108571,4015920.0769932675 L 70292.3056459275,4019778.9085170277 L 68781.69042818045,4020611.045237273 L 67882.12968729355,4020510.564754207 L 67281.80469585338,4020688.2491479977 L 66182.4259022497,4021591.820158707 L 65389.87730731972,4022620.801362948 L 65123.343796083005,4023717.256511813 L 64085.49347966781,4025701.0187746743 L 62095.84964473662,4027051.682300134 L 60942.09815069084,4028640.2888123835 L 60467.21849326516,4030333.815216313 L 60756.09980429022,4032837.617400938 L 59731.314151560015,4034875.9026989397 L 60012.53915745823,4035488.6073828805 L 60190.95188019279,4037481.0220302655 L 60133.12014653027,4038789.2009002133 L 59938.124532839516,4039311.5847322433 L 59190.016863914265,4040033.0784839494 L 58972.44238508539,4041209.285221655 L 59279.65479952603,4042427.2792354715 L 58473.38726702676,4045588.980825203 L 57529.242052816204,4047704.914312608 L 57209.934335940576,4049181.409585644 L 57488.16391243582,4050424.5641536936 L 57583.1587659354,4051480.4028977873 L 57173.28985612752,4052100.3781534135 L 57142.23275327677,4053221.9425902995 L 58574.37089612358,4053291.502485873 L 58839.73114634352,4053503.4553795955 L 58449.176622582425,4057393.829941795 L 57588.28961062705,4058161.8410799694 L 56956.657644664636,4058324.342139845 L 56774.740266624896,4057933.6792560434 L 56251.17706086859,4058013.382225374 L 54935.455474355025,4059071.109229878 L 54439.252961950086,4059889.413731394 L 55183.558528491994,4060103.1134260874 L 57961.42815982294,4063890.4601535294 L 58330.997101471585,4065636.04617483 L 58537.062807137205,4065941.4082584376 L 59143.61373388866,4065933.8823223216 L 59648.971838807105,4065640.673543793 L 62521.74339056981,4062676.757992038 L 62577.73932881671,4061838.910157222 L 62781.96585584059,4061795.0969412276 L 64178.26015107293,4062069.1501495694 L 65178.621806694544,4062750.56959989 L 66926.69647226896,4064768.6870095097 L 67928.54527952126,4066365.3549512844 L 68618.91282024351,4067705.491173305 L 69709.62255722884,4070506.082077619 L 70546.1071206198,4073948.242032038 L 70874.4205493987,4077948.4076634008 L 72725.43498666259,4083839.4171914994 L 72496.22294488485,4085096.8136020713 L 71092.79346168356,4088893.182690224 L 70997.86141424626,4089119.9526875187 L 69632.316670219,4092384.6164989434 L 66841.70612925349,4098337.994694366 L 65351.889512464055,4100485.0298001985 L 64126.47705663758,4101850.6860895697 L 63115.570475164684,4102693.2157156444 L 61065.643154157966,4103823.6759143393 L 60227.50027787732,4103856.071334231 L 59102.36332516407,4103179.7310005887 L 57121.71082140744,4101356.875501873 L 56844.84840487718,4101360.2272012043 L 56156.85902386706,4101916.959979365 L 53653.13488536194,4102697.0548173906 L 52658.811759347154,4102482.287240604 L 52255.47828942753,4101278.6320769084 L 50194.65056749032,4101095.3042376908 L 48740.384514488745,4101144.6157547315 L 47602.34677601629,4101485.104751288 L 45260.49878466432,4102186.1488215993 L 42290.68908621598,4104462.351960912 L 41034.223634366936,4105187.602013509 L 38337.88329796988,4107851.788471858 L 36682.63128400006,4109111.9150942652 L 32865.478142687,4114390.87740282 L 32207.44083991216,4115886.762447071 L 30216.778653031623,4119250.5378660336 L 29531.488716516935,4119909.479329486 L 28416.82082565286,4120981.8249241286 L 27736.984660584945,4121218.051247236 L 26913.941583555075,4120963.3514875127 L 26246.793989733444,4120987.294190265 L 25671.833038095443,4121247.4277717005 L 25534.815354241175,4121642.004053202 L 25754.58585789858,4122737.237318883 L 25720.27400032716,4123311.983629313 L 25220.516322110605,4124249.721993166 L 23891.277946847025,4125603.50458683 L 23764.06094399182,4126504.2320538796 L 23351.5360038277,4127555.4268608144 L 22321.05791674723,4128540.0704122363 L 21326.02324594307,4128804.0158354607 L 20778.421827601036,4129310.0756363748 L 20121.06330532179,4130299.505718194 L 20084.2684804459,4132939.70368619 L 19961.14695716888,4133592.296420861 L 19401.920160677633,4134469.147244441 L 19164.67609433306,4135444.573250958 L 19268.333469769335,4136224.3657510737 L 19979.45078444766,4138113.9743973035 L 21352.304229598434,4145965.5761380913 L 21535.782002658467,4148430.711343725 L 20889.781017904344,4150203.9964397103 L 19759.87283879274,4152245.642491053 L 18231.01640290377,4157170.5179596944 L 18192.145122855436,4160025.785026516 L 17774.58840489952,4162167.400199539 L 16489.814377010858,4164203.6526534087 L 16107.125200832612,4164493.446114509 L 15736.793203872861,4164317.559108498 L 15197.205648553558,4164061.40712078 L 14874.14266963338,4163907.9796074354 L 14796.312536470941,4163884.554835577 L 14761.062796560349,4163874.0215540426 L 14159.932885748625,4163693.4147566957 L 14105.559460995952,4163735.496174327 L 13692.683830899652,4164055.15213576 L 12322.584931567078,4167033.415161522 L 12175.344816191122,4168821.222553363 L 12485.670627988351,4169654.1845649704 L 12652.710288011527,4169778.107811204 L 12789.946014758549,4170449.943804931 L 12557.188396436453,4173127.4617818724 L 12731.723105305515,4174733.2662718333 L 14187.08201641374,4175650.7716530263 L 14675.144985050312,4177015.2236317247 L 15121.885696437617,4180544.4029725892 L 15160.430844613991,4185267.792374215 L 14804.29441461619,4187707.4595952383 L 14548.544175837364,4189461.122095432 L 14456.100827537128,4192265.416070819 L 14374.323259627447,4194754.669713583 L 14217.609692540893,4195845.0333693335 L 15075.38547846867,4196628.423241254 L 16168.325030773529,4196521.258291717 L 16811.84364651481,4196784.306181784 L 17622.459688466857,4198987.991753469 L 18291.078699279227,4198708.29375135 L 18841.510880185757,4198228.16616677 L 22218.19151087571,4198735.906939483 L 23850.513356343028,4198692.503883131 L 24633.778120204923,4197999.48451333 L 25667.541136564163,4196278.52105936 L 26145.352224769245,4190038.742654281 L 26636.52144285204,4189715.383045798 L 26864.650529612554,4189993.335902756 L 27058.332225593214,4189946.31790804 L 27792.622363167466,4189334.0417529303 L 27262.178947083128,4187749.234263245 L 26514.264189794718,4188077.712088981 L 24605.419190301618,4187157.8893072307 L 24440.03960575699,4187078.284659483 L 24748.670815506775,4183887.6581355464 L 25818.22371736495,4181947.9097940587 L 25639.957674626436,4180864.181030446 L 25425.18536021991,4180657.666691006 L 24574.45966490457,4180487.8770231763 L 24620.987970319402,4179281.6585807167 L 26369.062262023857,4177904.8230269286 L 27198.71157885692,4176690.36990198 L 26880.40579952195,4176198.113666755 L 25860.311789808853,4176621.1897270186 L 25595.938143988547,4176563.484051781 L 25081.09896536672,4175681.3924884736 L 26617.232987304975,4174134.507481177 L 30366.838006600214,4173738.4431102024 L 30546.625134415168,4173327.107482081 L 30494.94912095886,4172929.0226728567 L 31311.279902523034,4171971.073896202 L 35113.462874303455,4171464.9323050524 L 36027.43946641416,4170684.4493888593 L 36641.94951352087,4169738.575799195 L 36771.8744024756,4169619.450528137 L 37321.05026436789,4169115.816084619 L 38265.15521318058,4168250.1905917698 L 39182.70721318317,4167409.351425013 L 40737.456640101154,4167177.2213556855 L 40791.5548633337,4165533.604888686 L 43024.27363122383,4163368.8015220542 L 44135.55732314952,4162979.6207818296 L 44680.20040367567,4163113.8043065774 L 45551.71937408188,4163649.280787725 L 46336.562554416596,4163132.3652423834 L 46604.31470475299,4162716.8406717824 L 47662.45667308528,4163253.133876781 L 48097.57651466987,4163473.809348219 L 48168.420320709876,4165839.2660929686 L 46885.04802354309,4169445.171151992 L 46436.069241801975,4169724.947635403 L 46145.69622828328,4170251.2580136512 L 45625.990082875884,4171883.7236080416 L 45434.533874159795,4172623.3159661097 L 45654.9864617635,4173996.3956816075 L 45608.16262087744,4174728.0474932776 L 45233.97246952908,4178467.026452191 L 44504.62098452647,4181533.0348783974 L 43861.40917330072,4182479.9428722607 L 43163.40702098794,4182956.0557280993 L 41624.61128597194,4184463.322386852 L 41076.37222939567,4185046.96678033 L 40217.00894506625,4185198.037893199 L 39566.56656879344,4185999.968406 L 37445.17962625541,4187941.8939482276 L 36722.739140015154,4189513.8264035108 L 36574.07128718187,4189959.7332680216 L 36680.08716376388,4190555.414468552 L 37129.30493951868,4190821.811725631 L 37788.733180019364,4191082.762823889 L 38013.089549830474,4191454.5372848595 L 37079.675042519986,4192339.7599542527 L 36188.8604419991,4192774.254151321 L 35208.76625119464,4193128.5584647283 L 34275.90513040993,4193416.2461546357 L 33589.22674968961,4193561.9337876695 L 32703.439452062943,4194082.0285536284 L 31447.39733820816,4194644.7389086215 L 30570.03932300856,4195155.370687971 L 30430.437531654607,4195236.560691418 L 30429.189752621052,4195482.337925183 L 30423.62213181256,4196598.865122718 L 30110.69428929116,4197005.222531699 L 30100.402703547967,4197018.514941769 L 30337.97665288701,4198135.39717219 L 31316.992930037493,4199574.483560487 L 31858.8264731167,4199944.686000245 L 32872.03925810702,4199959.895627646 L 33090.42443993874,4200239.1753746 L 33432.773204603116,4202188.711999863 L 32791.56707701011,4205142.449873981 L 32954.07623860793,4207229.940669809 L 32693.076904322894,4207718.979189161 L 32673.40515999816,4207742.500459328 L 31827.57545033563,4208752.970654081 L 30895.914255583426,4209134.647631558 L 28908.87214360782,4209248.889980596 L 28418.751814426505,4208766.52847837 L 27955.854429307277,4208756.794389365 L 26985.010967621405,4208958.769964914 L 26370.405231642886,4209322.5463171555 L 26095.017852588207,4209557.3797130855 L 26059.91529573244,4210945.227508579 L 25686.39714008587,4211477.541988622 L 25147.788393366383,4211654.7101629665 L 24110.86450188543,4212699.806562098 L 23830.617052972375,4213412.814158128 L 22839.395168961375,4215655.368122122 L 22883.024152873957,4215908.043839068 L 24134.360293157282,4215579.746415315 L 24433.987548329635,4215270.50397286 L 24711.947846359864,4214925.202528979 L 25454.039146149647,4214710.950083694 L 28432.519007397757,4217007.755633244 L 29007.480499411235,4218292.094553047 L 28939.277462899045,4218784.592438341 L 28620.331877899996,4219258.047476304 L 28508.79180514923,4220322.086453398 L 28624.53959841316,4220826.017111538 L 29008.86977271276,4220986.104632901 L 29347.487655476958,4220495.69455488 L 31012.390254676633,4219703.532581636 L 31741.82250434172,4219843.8924068995 L 32738.908972603153,4220625.415109804 L 33231.912545374245,4220670.028569313 L 34509.30936180084,4220305.210014169 L 36108.03086995159,4221526.742174603 L 38057.65742959024,4223858.989671881 L 38100.99529388099,4224622.3459021095 L 37820.814159014146,4225596.176788804 L 37354.776198959036,4227217.181193221 L 36546.67059540021,4228211.357128349 L 35021.95792523777,4230778.149813932 L 33966.545582362334,4231969.16190644 L 29597.957482506637,4235138.791519106 L 27012.104727885046,4236237.553474485 L 26390.581910854264,4236346.066250771 L 26384.83198723523,4236347.070943207 L 25745.902949023177,4234779.624922376 L 23007.35532132309,4232788.217806029 L 22055.352053845767,4232771.338770528 L 21670.495803384634,4233085.81812891 L 19060.119889977854,4232802.396472318 L 18552.519933425705,4232504.114202859 L 18471.549981249787,4232257.114062921 L 18411.76122842182,4232074.734402374 L 18453.348465378745,4230832.088378805 L 18695.31581476319,4230051.637635657 L 18833.312716513232,4228000.75028687 L 17984.954904684913,4226336.553332309 L 17192.99593410903,4223684.237604848 L 17252.759035446856,4222258.042566697 L 17512.281094345788,4221768.484955331 L 18613.180064564163,4220864.35343404 L 20224.769007931638,4220295.132009408 L 21040.582547471917,4219444.638285742 L 21392.113254126045,4218548.605061544 L 21368.63882569829,4218148.739089785 L 20610.879338081868,4217536.768994198 L 20110.145562930556,4217858.01984438 L 19277.956520721782,4217943.485953909 L 17711.75772194413,4216357.992189738 L 17554.91422750667,4216148.461580144 L 17518.378555950476,4215530.547383229 L 17679.886316481745,4214353.754576555 L 18291.725855524593,4213952.814276275 L 18381.138679988217,4213509.829645766 L 17779.648134321964,4213107.613382396 L 16581.249435179634,4213360.819125082 L 16247.424216506304,4213088.769309514 L 16195.755113773339,4212216.376474622 L 16985.57627637568,4211403.659668772 L 17619.01217820315,4211366.242079083 L 18317.511458769965,4210960.226503901 L 18811.158991561853,4210019.294044414 L 18730.94642764324,4209148.611520038 L 19885.189939366013,4208132.374226877 L 20773.913768018247,4208007.368372375 L 21518.819084586634,4206906.072499812 L 21586.138624673185,4206573.796383604 L 20485.011374297203,4205544.086568696 L 19403.972523581702,4205352.128796483 L 18374.18719929841,4206032.69022101 L 17791.506280860165,4205957.652084227 L 17531.00423922285,4205462.287201494 L 17527.668683521333,4204915.322118952 L 17902.350725391007,4201421.847444104 L 17905.94772829936,4201388.309670093 L 17623.72713296424,4200615.2205400495 L 17562.65251811879,4200642.554430392 L 17250.556493346405,4200782.07952706 L 16446.04740896332,4200619.04441471 L 15290.874177034013,4200384.954931514 L 13770.135432137351,4200763.569685919 L 13704.874033016502,4200779.812680451 L 12534.121819408902,4201462.415380346 L 11542.292151080794,4202179.027727569 L 10544.537714847596,4203977.562175817 L 8585.531771454087,4204919.800820432 L 7194.598391671258,4206775.857000262 L 4994.491646487091,4208129.873440844 L 3937.8996599481325,4209450.266574679 L 2530.255794201221,4210335.194132459 L 611.9953951002099,4210684.623185292 L 285.55894050118513,4210687.401248195 L -753.5576311503537,4210162.372078331 L -1602.0952486383612,4209394.725087209 L -3698.7311887603137,4210728.551001781 L -4084.8286233882536,4212491.786976315 L -4398.418256127916,4213135.6004605265 L -5889.849323668226,4214309.744535868 L -6887.384822654421,4214647.835791847 L -8300.153653706133,4216222.231701345 L -8922.042279943358,4218278.201276292 L -9370.117284047825,4219113.048033697 L -11338.656745376356,4221475.542249084 L -14292.065355453291,4223890.160999869 L -16476.51497733849,4224982.807607645 L -21490.89639629249,4226042.757871295 L -23016.300831036002,4225785.039559526 L -24444.961663469207,4224931.758258938 L -25350.722799555864,4223748.719811841 L -25439.07734275947,4223213.906510741 L -25266.922420253162,4222818.696033429 L -25006.401192387566,4222227.251685468 L -24820.951619785512,4221852.621317933 L -29170.949031594093,4222407.256974582 L -28829.21405676601,4222905.644312374 L -28439.30463907402,4223119.872490483 L -28007.37691100489,4223286.764150348 L -26051.87186704029,4227435.312762947 L -22772.060573535506,4235167.167423304 L -21816.298374086677,4237961.491937035 L -21441.187373414054,4239666.259285531 L -21418.21136784897,4240778.235245653 L -21686.061877250846,4242092.802232087 L -22636.955730708956,4243430.745085763 L -22639.457883232506,4244702.8194559375 L -22764.06963648455,4245147.528023535 L -24632.263393684756,4248700.000358766 L -24776.1616242507,4249202.145065691 L -24697.67569881701,4249429.552453271 L -24179.894134036847,4249156.277085705 L -22513.421893170977,4249644.132046453 L -22337.575494876888,4250504.281646818 L -23079.092853973852,4252472.446000936 L -23850.1746407171,4253109.551202877 L -24503.92360313749,4254260.144578825 L -24677.104243938113,4254981.2194063505 L -25140.157168608508,4255708.694123495 L -25236.743167594774,4255860.478059734 L -26907.740329684806,4257482.649784348 L -28147.195161508163,4257898.907541889 L -29246.58801919804,4257649.399749722 L -29494.301305188565,4257111.009820229 L -29392.303234497667,4256716.448727714 L -29543.031357995118,4256407.120415685 L -29965.120348857483,4256319.944458748 L -30412.748849194264,4256775.9852332 L -31227.42389998515,4259105.575211805 L -30588.091851352598,4260473.398307814 L -30392.36330307345,4263211.629130384 L -31680.90602842113,4266718.077240476 L -33081.96554810833,4269602.594932839 L -34552.954027294065,4272130.298576233 L -35019.04679491697,4273623.79746282 L -36393.68440016359,4274720.58419426 L -38121.32719546289,4276569.185659579 L -41106.954659223324,4278932.1165769035 L -45129.692215742776,4281072.878579241 L -48168.71629165171,4284537.982691542 L -49016.27975203341,4284956.688999951 L -51878.76542466378,4287620.279241044 L -52688.219790894655,4290407.899035293 L -53182.93594141386,4291201.103268909 L -55043.60985545139,4292495.052475278 L -55577.04246176884,4294175.604534368 L -57026.132794988225,4297078.5532609215 L -57429.507752830395,4297375.361862533 L -57603.95565038442,4298200.499480977 L -59723.38832534361,4301744.392951473 L -60412.98877333256,4303201.541543712 L -61976.65447189356,4305239.2856761925 L -64357.48696855549,4307107.223592946 L -66435.3788065752,4308344.703493924 L -67243.5247003478,4309724.370601201 L -67856.56493397534,4311399.797267583 L -68512.11655663105,4312380.168351238 L -70962.90527070407,4314949.8006537715 L -71609.87623456097,4315515.512595179 L -72176.99063977972,4315558.984002858 L -73289.80857927771,4316897.208266325 L -73367.70441869192,4317447.4447159255 L -73663.08459674416,4317890.589149229 L -76388.50555110595,4320446.1847626 L -76738.38221847487,4320487.374589644 L -77135.87916703534,4320680.314844154 L -77481.12627226976,4321723.3487812625 L -77607.0278603565,4322967.769898482 L -77998.34457467543,4323766.321207238 L -80280.4105725619,4326287.497372292 L -82068.08756151621,4328613.382129547 L -83320.76986121025,4329176.270473486 L -83417.89005727938,4330531.2833372345 L -83247.18336579378,4331285.955083218 L -84191.7414479003,4333339.811437403 L -83664.41531545005,4333398.317251292 L -83317.50665613031,4333559.519835087 L -82589.46913973126,4334311.414095336 L -81594.17774115212,4335739.13791456 L -80135.79953445215,4338657.665685763 L -79463.04638207937,4340495.3863745425 L -79326.16755254159,4341587.423193292 L -79446.63736785471,4344524.456068133 L -80708.42796595127,4350323.213473927 L -81271.16734890197,4352254.0346908625 L -82401.71373343572,4353938.073446485 L -82541.33044571301,4354372.900464871 L -82736.25351275445,4356783.663161789 L -84139.40484734706,4359873.485015741 L -84544.32690529991,4360134.270101193 L -85178.10090749036,4362241.04869297 L -85173.10443444666,4365049.261628757 L -85855.77371078613,4368130.782547804 L -86755.57793102681,4368984.099558661 L -87112.8786240766,4369839.92482201 L -86892.33680156339,4370355.157951211 L -86937.70098980155,4371276.959523301 L -87477.73927271774,4373673.610943142 L -87154.93707374635,4374939.317555966 L -87775.45348137873,4376599.350822045 L -88139.80618102546,4377192.197253793 L -88276.88027611142,4379097.906766412 L -88294.366327064,4379981.787496002 L -87855.8480094726,4381208.947537694 L -87591.75854847406,4384186.840761278 L -86636.19667971437,4388554.851297961 L -84610.21267180622,4393506.4507064065 L -83478.01277243742,4395343.529441735 L -82890.38082815276,4396646.836713688 L -81590.69211094116,4400049.557885858 L -81594.7241724343,4400837.673679641 L -82956.16597642656,4405936.667769091 L -82581.04685271811,4406463.137118097 L -82375.48363428342,4407785.285591203 L -82398.14367949206,4412084.030017645 L -82734.76533987501,4414813.322372084 L -83844.48134828976,4417870.220925009 L -85200.76442880707,4418802.41514559 L -85570.747026494,4419383.248071268 L -85682.69707110582,4420236.653995595 L -85913.11038161768,4421164.090431547 L -86054.00565200765,4422699.7095794305 L -85770.41707038216,4425340.95544757 L -85831.86371394363,4427514.82460833 L -86542.17099571787,4431638.865451881 L -86700.19340645918,4431881.200750455 L -88975.61434205435,4433322.474496027 L -91068.57325765688,4435452.970382887 L -91602.84745447559,4436867.974566639 L -91613.58999781671,4437517.380150823 L -92581.2131782833,4440788.4683932625 L -94602.3746114003,4442363.700525435 L -95128.54324252764,4444111.434945999 L -96398.14525094326,4446986.7774435785 L -97659.04886968492,4448269.918495677 L -99811.35015090147,4451597.8963338 L -100727.94465955789,4453016.474360964 L -102382.9127257953,4454376.660877732 L -103118.66360382293,4454488.954107504 L -103477.49525351974,4454128.57567987 L -103773.211358245,4454303.152950254 L -104348.64112072764,4455144.980959095 L -104087.89669240173,4459188.29040853 L -104522.72241452907,4460602.379187956 L -106299.73615172249,4463577.315034177 L -108696.16057982901,4465178.0527350055 L -111254.70711394364,4466263.96527518 L -112657.00429658359,4467086.517792355 L -114686.75601041038,4470648.479930121 L -115971.02687164489,4471948.270292773 L -118183.50004250277,4473550.275269335 L -121205.2176825921,4476545.18934247 L -123121.57668224687,4478695.931945127 L -123599.82087461965,4479939.003488176 L -124848.61951395927,4480782.489509535 L -125610.09157699149,4481570.478726118 L -126423.58521933272,4482815.862391195 L -126300.8407309131,4484511.053635279 L -124601.2719361115,4488669.309227751 L -124893.88255451841,4490572.955081032 L -125155.76734302554,4490996.737474422 L -125543.44481143949,4492711.325852588 L -125530.38219142833,4495486.916503396 L -126062.59867483657,4497553.76346921 L -126473.4600529382,4498249.158951387 L -127451.50013880525,4499251.270301164 L -128255.9030957761,4501004.446706957 L -128698.07602095173,4502829.427161762 L -128565.95586441748,4503391.9511217605 L -127373.33338023582,4505408.979457513 L -126120.8908642605,4508404.130504853 L -125881.45242669212,4509506.861989498 L -126156.02251221158,4510101.045831028 L -125667.70949581801,4511632.108013047 L -125316.03817070322,4512035.1170711955 L -123755.95351786434,4514795.367498119 L -120231.59050396702,4522080.475883634 L -118809.06708846625,4524546.283388713 L -118573.60046345904,4524728.829572312 L -116234.54077313014,4528819.465713184 L -112277.87045041728,4534705.075351533 L -110258.5364698196,4538367.258074506 L -107706.75922372122,4542153.16166063 L -105225.96845114417,4546257.040155469 L -103377.38673074427,4549735.668654427 L -101131.91204186657,4555107.535446886 L -98959.33811641601,4562036.985749969 L -98101.59965559875,4566319.7086595325 L -99033.98268102319,4568670.685622858 L -99628.44657587353,4569164.563881279 L -100054.86016323383,4569407.718831513 L -100448.85911340953,4569405.454270065 L -100825.21100107662,4569308.000167381 L -100983.1267708086,4569162.470111595 L -101182.23743152339,4569137.925204546 L -101358.00411771354,4569426.412643187 L -101333.77123891609,4570137.448100369 L -101124.94167111255,4573167.494855711 L -101524.26933819626,4574526.517987699 L -101188.33397028991,4577066.1057098 L -101649.5943999018,4577984.219567149 L -101448.42935181118,4578958.125555904 L -100950.7383344461,4579403.244596205 L -100225.97848783527,4579099.929700418 L -99697.31033681799,4579486.059491874 L -97511.18885379122,4584345.063829156 L -95829.3171860479,4588676.457752746 L -95678.74331100576,4589895.15969939 L -94066.92899851094,4595022.297380337 L -92413.18751530768,4601536.235237324 L -91597.93698442052,4604569.1772518 L -90236.8435652958,4611699.412179229 L -90211.88250495284,4614511.994956693 z" /></g></g></svg>