<svg xmlns="http://www.w3.org/2000/svg" xmlns:xlink="http://www.w3.org/1999/xlink" width="100.0" height="100.0" viewBox="-125.68464426821924 31.259129229659667 12.827500608579783 12.025451763999467" preserveAspectRatio="xMinYMin meet"><g transform="matrix(1,0,0,-1,0,74.5437102233188)"><path fill-rule="evenodd" fill="#66cc99" stroke="#555555" stroke-width="0.2565500121715957" opacity="0.6" d="M -125.15251984322012,40.73738398404048 L -125.14917906664363,40.74853790555068 L -125.12399147530776,40.820096188621385 L -125.0921390920779,40.88894695706959 L -125.06116202667415,40.94203891246489 L -125.04378180688602,40.97651936255979 L -125.01007107398743,41.03677787306393 L -124.99580807398743,41.05987387306393 L -124.98624435902491,41.07498010952876 L -124.96506694322329,41.107617842343615 L -124.96512870961746,41.10845887238596 L -124.9636458447645,41.18298140183881 L -124.95523357131871,41.25704245732478 L -124.95380757131872,41.26589545732478 L -124.9387340200378,41.338095672036744 L -124.93297879679793,41.356830276558775 L -124.97017910422973,41.42254259073657 L -125.00126914472837,41.49221345211517 L -125.02558111792598,41.56452906248169 L -125.04289391328145,41.63883173175018 L -125.05305007580256,41.71444569809429 L -125.05595723805486,41.79068327381048 L -125.05158896021739,41.86685109964382 L -125.03998497054538,41.94225645069489 L -125.021250804053,42.01621353655743 L -125.00935093992938,42.0494836512461 L -125.00883881432162,42.06492988267027 L -124.9982083850726,42.144251339222635 L -124.97970590016062,42.22211376628274 L -124.95351652607987,42.29773794350713 L -124.9199023570629,42.370367050185564 L -124.87919979213189,42.43927423924189 L -124.83181616853305,42.50376991126919 L -124.77822568524594,42.56320861580303 L -124.7189646573633,42.61699551076733 L -124.65462614883451,42.664592315448935 L -124.58585403728586,42.705522697425494 L -124.5133365703151,42.73937703953627 L -124.43779947774665,42.76581653918952 L -124.35999870877754,42.78457659898214 L -124.28071286669827,42.795469474699274 L -124.20073541689938,42.798386154193764 L -124.09350045268525,42.79692902049622 L -124.08385576437222,42.79688114324402 L -123.82820624023564,42.795520187950046 L -123.64227885498948,42.7996406193439 L -123.62905434671325,42.79982434169952 L -123.52258910028945,42.80042326432847 L -123.50652485383557,42.80051418648466 L -123.50149179012412,42.80052684047685 L -123.49832479012412,42.800524840476854 L -123.49133634458872,42.800489902435466 L -123.36003248884302,42.79925991616215 L -123.26904172593132,42.80295024685199 L -123.19904023050458,42.806817788870205 L -123.11856203550818,42.807209930296246 L -123.02662744134196,42.80302879854449 L -123.00273587735434,42.80300225356614 L -122.64754901089363,42.80480332830389 L -122.5226953822951,42.80816941592261 L -122.50801929227183,42.80843037852655 L -122.38507729227182,42.80948837852655 L -122.3623693423737,42.80936149210288 L -122.2812049586685,42.80775578119583 L -122.16093174115268,42.807637 L -122.160438,42.807637 L -122.14226532303373,42.807430569498955 L -121.98765993034931,42.803917670714014 L -121.69945447259892,42.800767206847716 L -121.698493831892,42.80075612890387 L -121.679453831892,42.80052512890387 L -121.67566443195194,42.80047017729849 L -121.66185343195194,42.8002371772985 L -121.56922087079361,42.79858749353983 L -121.51125217241265,42.797932398952824 L -121.44226142403458,42.797160036565536 L -121.37449963700764,42.797024397271244 L -121.35863923481476,42.79683540651921 L -121.34279123481475,42.79648940651921 L -121.34161193376343,42.79646278966827 L -121.33979106840371,42.796420349555504 L -121.3330386194764,42.796653867036376 L -121.1530006194764,42.79635086703638 L -121.13401651967871,42.79609362800864 L -121.0262044634101,42.79335290424036 L -120.88183402166224,42.793777539548174 L -120.8790282675081,42.7937808718958 L -120.69394692175045,42.79367613145544 L -120.69268357599482,42.7936768651057 L -120.69100659553125,42.793676081296596 L -120.32479259553125,42.7931210812966 L -120.28784087914472,42.79306133679887 L -120.00329527400574,42.79452935343496 L -119.92456302573648,42.79105371476902 L -119.84655477759101,42.77984834985116 L -119.77002755658891,42.76102200056712 L -119.69572401719829,42.73475736625226 L -119.62436523428373,42.70130933069527 L -119.55664370547257,42.66100248863158 L -119.49321663084731,42.61422799573054 L -119.4346995351814,42.56143977264533 L -119.38166029461073,42.5031500999635 L -119.33461362570908,42.43992464680635 L -119.29401609044763,42.37237698132217 L -119.26026166551283,42.30116261634579 L -119.23367791898004,42.22697264800809 L -119.21452283144599,42.15052704902927 L -119.20298229246944,42.07256768178069 L -119.19916829661548,41.99385109891981 L -119.19986543713075,41.18428319219199 L -119.19937054778367,40.88143331818638 L -119.19926435932064,40.8746494058873 L -119.19595835932063,40.507096405887296 L -119.19592666158103,40.49887215151097 L -119.196155,40.32132357553849 L -119.196155,40.32125 L -119.19618208753161,40.263157766699486 L -119.19618334872314,40.26171403487464 L -119.19620212142178,40.256929823886175 L -119.19713274887545,40.12233201815857 L -119.19722879593539,40.091970669356925 L -119.19718176545256,40.0805350878882 L -119.19722859954638,40.06798452478071 L -119.20066059954638,39.77151852478072 L -119.20074748026855,39.77151953054407 L -119.20058264159378,39.76859730082355 L -119.20135575669438,39.71415182906285 L -119.20313279706225,39.439928887979256 L -119.2032024911615,39.43334956607599 L -119.2032034911615,39.43328156607599 L -119.20323420667947,39.4313513171593 L -119.20340172492068,39.421566151234956 L -119.13318221013698,39.373090034379736 L -119.13319745094924,39.37306795747855 L -119.13079270801424,39.371471078481505 L -119.03977603167078,39.3082739540624 L -118.9980786860692,39.27967120761775 L -118.99243269197848,39.27576253743426 L -118.8703305983779,39.190454855942974 L -118.69871184692528,39.07056120725287 L -118.6678351900419,39.04899124128852 L -118.66412588876504,39.04638430825949 L -118.28474188876505,38.778140308259495 L -118.27869641703094,38.773823610301534 L -117.96067960771097,38.54451074779547 L -117.57189679788868,38.26417088492703 L -117.5697797903782,38.2626391117358 L -117.3627077903782,38.1122951117358 L -117.35797780472487,38.10883438985398 L -117.02616080472487,37.86418738985398 L -117.02290016560985,37.861770545684934 L -116.688178509868,37.61235080221085 L -116.52288684658488,37.48918305311678 L -116.51763764921232,37.48523798507842 L -116.00497564921231,37.09664098507842 L -116.00049628996621,37.093220727426605 L -115.61035029315583,36.79313966014125 L -115.60273577211359,36.787510095793934 L -115.42256853582983,36.64751149188059 L -115.40326211414379,36.6325658376739 L -115.3557940025461,36.59575076009132 L -115.19901785199876,36.47415919447942 L -115.1955615395155,36.47146337022242 L -115.15428853951549,36.43908937022242 L -115.15429269826357,36.43908406831318 L -115.15145170060852,36.43687368306964 L -114.91384729008004,36.249269834058005 L -114.91106367304144,36.24727481472867 L -114.90052267304144,36.23901381472867 L -114.89877548876001,36.23764062202434 L -114.80852248876,36.16650362202434 L -114.77601768267967,36.14087478864409 L -114.77243235353085,36.1380312214837 L -114.7263684545036,36.101282290945846 L -114.66716361051598,36.05405133691955 L -114.66485434648821,36.05243102719354 L -114.65157434648822,36.04196402719354 L -114.65163811477073,36.04188312122319 L -114.64629633782621,36.03806847305791 L -114.4259633378262,35.86194047305791 L -114.42600606281782,35.8618870248522 L -114.42412843642332,35.86053388170137 L -114.30466091481381,35.764489145443854 L -114.3031280522607,35.76328967009014 L -114.13189205226071,35.62568567009014 L -114.06813669594986,35.56857839018443 L -114.01084739649893,35.50498654286912 L -113.96067993618283,35.435638054767466 L -113.91820857462015,35.361326747932196 L -113.88391947530691,35.28290325307996 L -113.8800964753069,35.272705253079955 L -113.86231010472963,35.21600438293443 L -113.8274739687524,35.17473925803163 L -113.77940059576467,35.10350295834265 L -113.73924610856741,35.02752087662782 L -113.73462015885524,35.01589478067446 L -113.73416792311787,35.015624496547446 L -113.67261907426078,34.97034679640386 L -113.61567055582414,34.919403718622924 L -113.563841874521,34.863259985933496 L -113.52521487452101,34.8171839859335 L -113.48146959846399,34.75995471926587 L -113.44304946809496,34.69902252971841 L -113.41026597691054,34.63488142864912 L -113.38338491901924,34.568051443857385 L -113.36262423419986,34.49907440342761 L -113.3481522409418,34.42850954282576 L -113.3413592409418,34.38566654282576 L -113.33278872131888,34.30597060269552 L -113.33223627477204,34.225817053287756 L -113.33970744725752,34.14601054815476 L -113.3551272364139,34.0673522569057 L -113.37834084450346,33.99063182234414 L -113.40911523241125,33.9166194333221 L -113.44714145910187,33.84605809289035 L -113.49203778304775,33.77965615936432 L -113.54335349449477,33.718080235185006 L -113.54512849449476,33.716155235185006 L -113.60336045172863,33.65912717744301 L -113.66709277485104,33.608320177900296 L -113.70491934123179,33.584015724703384 L -113.71095536145371,33.545033892247105 L -113.71324736145371,33.5340128922471 L -113.73364223510907,33.45593458471468 L -113.75470489361369,33.399362838939155 L -113.76524387188552,33.35325882286599 L -113.76546176657195,33.35260313536281 L -113.76225285245916,33.34723739660516 L -113.7281233439828,33.27444747605633 L -113.70147176986602,33.19859967134558 L -113.68256727752144,33.120459950002754 L -113.6716007785695,33.04081742503601 L -113.6658857785695,32.97496542503601 L -113.66293050346768,32.89774691256278 L -113.66743914085318,32.820603510327516 L -113.67026414085318,32.79422651032752 L -113.67052056396507,32.79425397346931 L -113.68123553829798,32.72237271609243 L -113.70049474540815,32.64587155811315 L -113.72719493541929,32.57163919263789 L -113.7610764763416,32.50039745335948 L -113.7916454763416,32.44353245335948 L -113.83483614632644,32.37234073705172 L -113.88519287460564,32.3060241149906 L -113.9421701015431,32.2453010546667 L -114.00515054169837,32.19082942349567 L -114.11399381041366,32.10617881260415 L -114.13004140003446,32.09264146043418 L -114.19398317445868,32.048554905264794 L -114.26189866128028,32.01087650942571 L -114.33314773847984,31.979961402092336 L -114.40705886403781,31.956100966598036 L -114.4829354054015,31.939520094066584 L -114.56006220543733,31.930375063751878 L -114.59080399774706,31.929732518235234 L -114.6643280959913,31.92067693472096 L -115.407715743372,31.86916246245001 L -115.81471495409541,31.838761253258987 L -116.0434961420948,31.820785921963264 L -116.32520060886753,31.798652935032745 L -117.05174109336251,31.73748198548168 L -117.05773257401748,31.736977450258944 L -117.13512588484267,31.734221844792252 L -117.2124230147608,31.73896226970904 L -117.28889962711162,31.75115430339163 L -117.36383907414843,31.77068369661798 L -117.43653911260753,31.797367443169332 L -117.50631848429586,31.8309554947466 L -117.57252330003148,31.871133104125267 L -117.63453316711453,31.917523774591604 L -117.69176700290873,31.969692788021547 L -117.74368848005608,32.027151278541325 L -117.77717588376296,32.07231866001074 L -117.81330433200907,32.10522074034444 L -117.8662320489079,32.163983033037 L -117.87680192659744,32.17834939516644 L -117.90823729603683,32.15472229724927 L -117.9761831135901,32.11351566167657 L -118.04788176844576,32.079253089821975 L -118.12262583899884,32.05227263661303 L -118.19967785576038,32.0328405072603 L -118.20635447862158,32.031847328357905 L -118.2208553029591,32.02724793351676 L -118.29638306519753,32.01110516735319 L -118.37311549295497,32.002320732333956 L -118.45033741221698,32.00097650257461 L -118.52732908673111,32.00708500678331 L -118.60337292620927,32.020589311488706 L -118.67776017452918,32.04136355168053 L -118.74979751559809,32.069214103917055 L -118.81881353530977,32.103881390965704 L -118.88416497936721,32.14504230115685 L -118.91629823479919,32.16991170751877 L -118.94113205203269,32.18535714382619 L -118.9996372726481,32.229664678099 L -119.00802727264809,32.236646678099 L -119.07006650258553,32.29408683836719 L -119.1256972421332,32.35775361840393 L -119.15642802988208,32.401498207357285 L -119.15643942741245,32.40149001261056 L -119.172252115749,32.423482833324194 L -119.19875441513474,32.45865635256236 L -119.22838115581236,32.44887030095809 L -119.29971892761479,32.43235756766549 L -119.32017492761479,32.42859956766549 L -119.39525229479801,32.41845424420507 L -119.4709526952261,32.415456240484644 L -119.4822566952261,32.41554424048464 L -119.55978640852685,32.4199166462383 L -119.63652697334749,32.43178509548741 L -119.6611819733475,32.43683409548741 L -119.67552354517962,32.43990829685081 L -119.6864985451796,32.442366296850814 L -119.74389903427047,32.45747846040108 L -119.77811203427048,32.46785746040108 L -119.8629938851523,32.49894448980532 L -119.94382681695593,32.5394089080309 L -120.01957877855197,32.58873407727193 L -120.03867777855197,32.602768077271925 L -120.10560623701136,32.65776759899951 L -120.16619543818999,32.719681366794305 L -120.21973493906009,32.78778340632759 L -120.2655969583609,32.86127518224615 L -120.27126795836091,32.87156418224615 L -120.31415225905587,32.962445247181336 L -120.32245225905586,32.983344247181336 L -120.34790944416116,33.0579720011687 L -120.36589638696779,33.13474334886532 L -120.36592704876868,33.13497510431377 L -120.4013050073259,33.146121142424356 L -120.47714782113663,33.178955411226404 L -120.52430482113664,33.2023334112264 L -120.58581748526758,33.236271203546664 L -120.59231837000233,33.24064284333511 L -120.6063439252095,33.24269438267849 L -120.67814252602373,33.26008348680828 L -120.74803095712723,33.28402147375808 L -120.81541326457756,33.31430421907596 L -120.87971486469696,33.350673495167214 L -120.88521586469697,33.354129495167214 L -120.95506691766695,33.40340706522786 L -121.01926118434069,33.459856552721725 L -121.07706570175178,33.52283342370598 L -121.08275970175177,33.529744423705985 L -121.12946730133966,33.59244316068359 L -121.16983162108343,33.65940175363082 L -121.20346713559576,33.72998067145577 L -121.23005258726987,33.80350580482616 L -121.24933405465686,33.87927490468391 L -121.26112737770572,33.9565642895263 L -121.26531991670237,34.0346357573914 L -121.26379323693028,34.06921688824632 L -121.30140784758454,34.11941885779276 L -121.34304062956514,34.188539305772906 L -121.35097462956514,34.203354305772905 L -121.38613859024855,34.27803591293901 L -121.41341978653236,34.35594344087554 L -121.4325277654697,34.43624743654691 L -121.44325909137787,34.518092932599586 L -121.44549951174386,34.60060854988771 L -121.44086748334847,34.66137183609263 L -121.44301199023288,34.663375898729846 L -121.49897647279481,34.721216338869 L -121.54884613213963,34.78438719370529 L -121.59211622966669,34.852249101163856 L -121.62834882196988,34.92411522029455 L -121.64123016220631,34.9576912435641 L -121.67616188517337,34.97612186951563 L -121.68881288517336,34.98351986951563 L -121.75061078508773,35.02358501650778 L -121.80846226185372,35.06916355392751 L -121.86187700644919,35.11986918968063 L -121.91040231251895,35.17527217794086 L -121.93853726009357,35.21408593074352 L -121.96611449496714,35.24901423354138 L -121.98880717299731,35.28441516262481 L -122.02831490397618,35.32029829035974 L -122.08059374028896,35.378007586125165 L -122.12701444379164,35.44052604604124 L -122.13745103081847,35.45788498829677 L -122.15905605814895,35.47888367421987 L -122.20871271628346,35.53740237418623 L -122.21076276122135,35.54035004169913 L -122.22574373133496,35.548488704869435 L -122.23843473133496,35.55611370486944 L -122.31075240331522,35.605128528814596 L -122.37729424500637,35.66173667267544 L -122.38665424500637,35.67062467267544 L -122.41811649144155,35.70338080051423 L -122.4415534059036,35.72445158748393 L -122.4552474059036,35.738197587483924 L -122.50753750221479,35.79607394632349 L -122.5539428582423,35.85876740704085 L -122.59402233835735,35.925681997067734 L -122.62739494156838,35.99618161720627 L -122.63361794156837,36.011177617206265 L -122.65926003888409,36.08228667080037 L -122.67361720234251,36.138149091307874 L -122.6844190039515,36.17605742211661 L -122.68920277430568,36.20205484320888 L -122.69573996296329,36.21827409408157 L -122.70013496296328,36.231388094081574 L -122.70395026881059,36.245161295846756 L -122.7153882896448,36.26882916799672 L -122.7428248455624,36.34395437075544 L -122.76262317995179,36.42144363869342 L -122.76581139629087,36.442520008142225 L -122.76745899845018,36.444003279601866 L -122.7877694363254,36.45641988346546 L -122.85119256762911,36.50445540268301 L -122.90953079186623,36.558553057749805 L -122.96220711622543,36.61817779710245 L -122.97216867243377,36.63201069878223 L -122.98069902474239,36.64010064245609 L -122.9887070247424,36.64864264245609 L -123.03792980353711,36.70641152942854 L -123.08145674625483,36.768584928177184 L -123.11889610182445,36.83460326584817 L -123.14964721098235,36.90328341663798 L -123.17444498199971,36.90742517175434 L -123.24745385072482,36.92684420457889 L -123.3183054062045,36.95306348821659 L -123.3242264062045,36.955578488216595 L -123.39446388072756,36.98954591667983 L -123.46105861404735,37.03019355520715 L -123.52337721855413,37.07713480099491 L -123.58082697722688,37.12992319225876 L -123.63286148101021,37.1880566545658 L -123.67898582575282,37.250982276103024 L -123.68182482575281,37.25528027610302 L -123.72126836569085,37.321772133235335 L -123.7541095561806,37.39176081885639 L -123.78004169334882,37.46459270864126 L -123.79882259697023,37.539587625581746 L -123.81027687218862,37.61604519215935 L -123.81429754752938,37.69325137117082 L -123.81381550541954,37.704041172835005 L -123.81390750558242,37.70404159679889 L -123.81388850558243,37.70816459679889 L -123.81158110040822,37.754055033487546 L -123.81084707390607,37.77048513412149 L -123.81064722931437,37.77262817044075 L -123.81022349915992,37.78105545579292 L -123.80432846006423,37.8224384515766 L -123.81178771989605,37.855255322744426 L -123.82155344085369,37.931523586731224 L -123.82160036653471,37.93302709456885 L -123.822898093601,37.93394094705359 L -123.88032190967417,37.98310546942819 L -123.93284878482423,38.03747064485969 L -123.93512949621348,38.040327784707394 L -123.95586843037168,38.060469198885315 L -123.98719091423753,38.09728418084994 L -124.00584817353877,38.11041554479733 L -124.06367810438694,38.15997350677585 L -124.07038484599471,38.16693113362659 L -124.07491503352125,38.17026417905929 L -124.09584109462816,38.182985075592256 L -124.15834294317939,38.229903950041546 L -124.21596846624101,38.28269751919333 L -124.22533383755146,38.293133138281796 L -124.22823730616139,38.29524714890915 L -124.28829557756845,38.34900909806346 L -124.34263894251848,38.40854179351043 L -124.3907157018091,38.47324085345249 L -124.43203777543683,38.542449446650004 L -124.46618565763342,38.61546496063684 L -124.4812216210762,38.658427103371956 L -124.49525002736344,38.693517893119534 L -124.5169349126271,38.76800205470781 L -124.53130355526147,38.84423634282838 L -124.53822084232696,38.921503902101726 L -124.53791127368618,38.96158735748546 L -124.54153510458158,38.96922659973722 L -124.5666771625284,39.03774886658438 L -124.58330482473193,39.1001537784904 L -124.59032937045247,39.12069654815403 L -124.6078184396149,39.193447685557956 L -124.61106443961492,39.210404685557954 L -124.61930092198834,39.26277440097063 L -124.62027592198834,39.27067040097063 L -124.62593601827123,39.34438236387264 L -124.6247674114286,39.41830208061213 L -124.62223350776584,39.4416180456063 L -124.6241479603362,39.44326554559358 L -124.6316219603362,39.45038154559358 L -124.67639008860377,39.49743085792818 L -124.69965518189099,39.51690235362685 L -124.72974357146569,39.536285399719816 L -124.76780699599284,39.5623897569705 L -124.79222199599285,39.580190756970495 L -124.81307304474038,39.596958596998945 L -124.8582845485583,39.630453458411004 L -124.91363554469311,39.68004249646663 L -124.92433454469311,39.69056349646663 L -124.97715577055071,39.74782583515744 L -125.02415694329363,39.80995430764979 L -125.06489235540293,39.87635975572242 L -125.09897571695424,39.94641246301345 L -125.12608381876731,40.01944812655897 L -125.14595959736697,40.09477415631296 L -125.15493028905817,40.15016285772247 L -125.17120711307761,40.19324770036827 L -125.19190607120973,40.27079441297342 L -125.204730613152,40.3500249034906 L -125.20955165308666,40.43014167500299 L -125.20632066468937,40.51033830970544 L -125.19507016957229,40.589807585927396 L -125.19408016957229,40.594932585927396 L -125.17654449033948,40.667394656567744 L -125.15251984322012,40.73738398404048 z" /></g></svg>